<svg width="66" height="75" viewBox="0 0 66 75" fill="none" xmlns="http://www.w3.org/2000/svg">
<path fill-rule="evenodd" clip-rule="evenodd" d="M65.1855 4.41299V70.1342C65.1855 72.5666 63.2049 74.5472 60.7725 74.5472H4.4562C2.02381 74.5472 0.0432129 72.5666 0.0432129 70.1342V4.41299C0.0432129 1.9806 2.02381 0 4.4562 0H60.7725C63.2049 0 65.1855 1.9806 65.1855 4.41299ZM61.6552 70.1342V23.2456H44.6476V71.0168H60.7725C61.258 71.0168 61.6552 70.6196 61.6552 70.1342ZM61.6552 4.41299V19.7153V19.7154H3.57358V4.41299C3.57358 3.92756 3.97077 3.53036 4.4562 3.53036H60.7725C61.258 3.53036 61.6552 3.92756 61.6552 4.41299ZM41.1173 71.0168V48.892H24.1115V71.0168H41.1173ZM41.1173 23.2456V45.3617H24.1115V23.2456H41.1173ZM20.5811 71.0168V48.892H3.57358V70.1342C3.57358 70.6196 3.97077 71.0168 4.4562 71.0168H20.5811ZM20.5811 23.2456V45.3617H3.57358V23.2456H20.5811Z" fill="#1E2228"/>
<path fill-rule="evenodd" clip-rule="evenodd" d="M61.6551 23.2456V70.1342C61.6551 70.6196 61.258 71.0168 60.7725 71.0168H44.6476V23.2456H61.6551ZM59.3764 44.0501C59.3764 43.0757 58.5856 42.2848 57.6111 42.2848H48.5893C47.6132 42.2848 46.824 43.0756 46.824 44.0501C46.824 45.0262 47.613 45.8154 48.5893 45.8154H57.6111C58.5855 45.8154 59.3764 45.0262 59.3764 44.0501ZM57.6111 48.4471C58.5856 48.4471 59.3764 49.2362 59.3764 50.2123C59.3764 51.1868 58.5855 51.9776 57.6111 51.9776H48.5893C47.613 51.9776 46.824 51.1867 46.824 50.2123C46.824 49.2361 47.6132 48.4471 48.5893 48.4471H57.6111Z" fill="#00ACED"/>
<path d="M61.6551 4.4129V19.7153H3.57355V4.4129C3.57355 3.92747 3.97074 3.53027 4.45617 3.53027H60.7725C61.2579 3.53027 61.6551 3.92747 61.6551 4.4129Z" fill="#00ACED" fill-opacity="0.4"/>
<path d="M57.6111 42.2849C58.5855 42.2849 59.3764 43.0757 59.3764 44.0502C59.3764 45.0263 58.5856 45.8154 57.6111 45.8154H48.5893C47.6132 45.8154 46.8241 45.0264 46.8241 44.0502C46.8241 43.0758 47.6131 42.2849 48.5893 42.2849H57.6111Z" fill="#1E2228"/>
<path d="M57.6111 48.447C58.5855 48.447 59.3764 49.236 59.3764 50.2123C59.3764 51.1866 58.5856 51.9775 57.6111 51.9775H48.5893C47.6132 51.9775 46.8241 51.1868 46.8241 50.2123C46.8241 49.2362 47.6131 48.447 48.5893 48.447H57.6111Z" fill="#1E2228"/>
<path fill-rule="evenodd" clip-rule="evenodd" d="M41.1172 71.0169V48.8921H24.1115V71.0169H41.1172ZM37.2409 55.3314C37.9311 56.0217 37.9311 57.139 37.2409 57.8274L30.4836 64.5863C30.1377 64.9305 29.6859 65.1035 29.2339 65.1035C28.7839 65.1035 28.332 64.9305 27.986 64.5863C27.2976 63.896 27.2976 62.7787 27.986 62.0885L34.7449 55.3314C35.4335 54.643 36.5508 54.643 37.2409 55.3314ZM37.4986 63.3384C37.4986 62.507 36.8244 61.8327 35.993 61.8327C35.1616 61.8327 34.4873 62.507 34.4873 63.3384C34.4873 64.1698 35.1616 64.844 35.993 64.844C36.8244 64.844 37.4986 64.1698 37.4986 63.3384ZM29.2341 55.0738C30.0672 55.0738 30.7397 55.7481 30.7397 56.5795C30.7397 57.4109 30.0672 58.0851 29.2341 58.0851C28.4027 58.0851 27.7302 57.4109 27.7302 56.5795C27.7302 55.7481 28.4027 55.0738 29.2341 55.0738Z" fill="#00ACED"/>
<path fill-rule="evenodd" clip-rule="evenodd" d="M41.1172 45.3617V23.2456H24.1115V45.3617H41.1172ZM37.0661 32.5393C38.0406 32.5393 38.8313 33.3284 38.8313 34.3045C38.8313 35.2789 38.0406 36.0698 37.0661 36.0698H28.1625C27.188 36.0698 26.3972 35.2789 26.3972 34.3045C26.3972 33.3283 27.1881 32.5393 28.1625 32.5393H37.0661Z" fill="#00ACED"/>
<path d="M37.0662 32.5393C38.0406 32.5393 38.8315 33.3283 38.8315 34.3046C38.8315 35.2789 38.0407 36.0698 37.0662 36.0698H28.1627C27.1883 36.0698 26.3974 35.2791 26.3974 34.3046C26.3974 33.3285 27.1882 32.5393 28.1627 32.5393H37.0662Z" fill="#1E2228"/>
<path d="M37.2407 55.3315C37.9309 56.0216 37.9309 57.139 37.2407 57.8275L30.4836 64.5864C30.1376 64.9306 29.6857 65.1036 29.2339 65.1036C28.7837 65.1036 28.3319 64.9306 27.986 64.5864C27.2976 63.8963 27.2976 62.7789 27.986 62.0886L34.7449 55.3315C35.4331 54.6431 36.5504 54.6431 37.2407 55.3315Z" fill="#1E2228"/>
<circle cx="35.9929" cy="63.3382" r="1.50565" fill="#1E2228"/>
<path d="M29.234 55.0735C30.0671 55.0735 30.7397 55.7478 30.7397 56.5791C30.7397 57.4105 30.0671 58.0848 29.234 58.0848C28.4026 58.0848 27.7301 57.4105 27.7301 56.5791C27.7301 55.7479 28.4026 55.0735 29.234 55.0735Z" fill="#1E2228"/>
<path fill-rule="evenodd" clip-rule="evenodd" d="M20.5811 71.0169V48.8921H3.57355V70.1343C3.57355 70.6197 3.97074 71.0169 4.45617 71.0169H20.5811ZM16.7048 55.3314C17.3932 56.0217 17.3932 57.139 16.7048 57.8274L14.5739 59.958L16.7045 62.0885C17.3929 62.7788 17.3929 63.8962 16.7045 64.5863C16.3603 64.9305 15.9085 65.1035 15.4565 65.1035C15.0047 65.1035 14.5528 64.9305 14.2086 64.5863L12.078 62.4557L9.94573 64.5863C9.60153 64.9305 9.14959 65.1035 8.69779 65.1035C8.246 65.1035 7.79405 64.9305 7.44986 64.5863C6.76146 63.896 6.76146 62.7787 7.44986 62.0885L9.58042 59.958L7.44986 57.8274C6.76146 57.1389 6.76146 56.0215 7.44986 55.3314C8.14015 54.643 9.25748 54.643 9.94588 55.3314L12.0782 57.462L14.2088 55.3314C14.8973 54.643 16.0146 54.643 16.7048 55.3314Z" fill="#00ACED"/>
<path fill-rule="evenodd" clip-rule="evenodd" d="M20.5811 45.3617V23.2456H3.57355V45.3617H20.5811ZM16.4417 32.5393C17.4162 32.5393 18.2069 33.3284 18.2069 34.3045C18.2069 35.2789 17.4162 36.0698 16.442 36.0698H13.8436V38.6681C13.8436 39.6426 13.0527 40.4334 12.0783 40.4334C11.1021 40.4334 10.3131 39.6425 10.3131 38.6681V36.0698H7.71296C6.73845 36.0698 5.9477 35.2789 5.9477 34.3045C5.9477 33.3283 6.7386 32.5393 7.71296 32.5393H10.3128V29.9391C10.3128 28.9646 11.1019 28.1739 12.078 28.1739C13.0525 28.1739 13.8433 28.9648 13.8433 29.9391V32.5393H16.4417Z" fill="#00ACED"/>
<path d="M16.4417 32.5395C17.4161 32.5395 18.207 33.3285 18.207 34.3047C18.207 35.2791 17.4162 36.07 16.4417 36.07H13.8434V38.6683C13.8434 39.6427 13.0526 40.4336 12.0781 40.4336C11.102 40.4336 10.3128 39.6428 10.3128 38.6683V36.07H7.71301C6.73865 36.07 5.94775 35.2792 5.94775 34.3047C5.94775 33.3286 6.73851 32.5395 7.71301 32.5395H10.3131V29.9393C10.3131 28.965 11.1021 28.1741 12.0784 28.1741C13.0527 28.1741 13.8436 28.9648 13.8436 29.9393V32.5395H16.4417Z" fill="#1E2228"/>
<path d="M16.7048 55.3315C17.3932 56.0216 17.3932 57.139 16.7048 57.8275L14.5742 59.9581L16.7048 62.0886C17.3932 62.7788 17.3932 63.8961 16.7048 64.5864C16.3606 64.9306 15.9087 65.1036 15.4569 65.1036C15.0049 65.1036 14.5531 64.9306 14.2089 64.5864L12.0784 62.4558L9.94606 64.5864C9.60186 64.9306 9.14992 65.1036 8.69812 65.1036C8.24632 65.1036 7.79438 64.9306 7.45018 64.5864C6.76179 63.8963 6.76179 62.7789 7.45018 62.0886L9.58046 59.9581L7.44989 57.8275C6.76149 57.1391 6.76149 56.0218 7.44989 55.3315C8.14004 54.6431 9.25737 54.6431 9.94591 55.3315L12.0782 57.462L14.2088 55.3315C14.8972 54.6431 16.0147 54.6431 16.7048 55.3315Z" fill="#1E2228"/>
</svg>
