<svg width="70" height="70" viewBox="0 0 70 70" fill="none" xmlns="http://www.w3.org/2000/svg">
<path d="M36.7148 6.7501V22.1363C36.7148 25.1186 39.1325 27.5363 42.1148 27.5363H47.9002L52.2573 33.2101L56.5819 27.5363H62.3648C65.3471 27.5363 67.7648 25.1186 67.7648 22.1363V6.7501C67.7648 3.76781 65.3471 1.3501 62.3648 1.3501H42.1148C39.1325 1.3501 36.7148 3.76781 36.7148 6.7501Z" fill="#67E7A8"/>
<path d="M10.0158 3.2135L7.44364 5.78566C-0.688083 13.9174 -0.688083 27.1016 7.44364 35.2333L33.8816 61.6713C42.0134 69.8031 55.1976 69.8031 63.3293 61.6713L65.9015 59.0992C68.386 56.6146 68.386 52.5864 65.9015 50.1018L56.1415 40.3419C53.657 37.8573 49.6287 37.8573 47.1442 40.3419L41.4258 46.0602L23.0461 27.6805L28.7645 21.9622C31.249 19.4776 31.249 15.4494 28.7645 12.9648L19.0131 3.2135C16.5286 0.728963 12.5003 0.728963 10.0158 3.2135Z" fill="#67E7A8"/>
<path d="M56.1415 40.3419C53.657 37.8574 49.6287 37.8574 47.1442 40.3419L43.7404 43.7457L62.4738 62.4791C62.7645 62.2191 63.0501 61.9504 63.3293 61.6712L65.9015 59.0991C68.386 56.6146 68.386 52.5863 65.9015 50.1017L56.1415 40.3419Z" fill="#67E7A8"/>
<path d="M25.3607 25.3659L28.7645 21.9622C31.249 19.4776 31.249 15.4494 28.7645 12.9648L19.0131 3.2135C16.5286 0.728963 12.5003 0.728963 10.0158 3.2135L7.44364 5.78566C7.16446 6.06484 6.89581 6.3505 6.6358 6.64115L25.3607 25.3659Z" fill="#67E7A8"/>
<path fill-rule="evenodd" clip-rule="evenodd" d="M51.6428 37.1284C53.7029 37.1284 55.6395 37.9306 57.0961 39.3872L66.8559 49.147C68.3126 50.6038 69.1148 52.5404 69.1148 54.6004C69.1148 56.6605 68.3126 58.5972 66.8559 60.0537L64.2839 62.6259C60.0961 66.8137 54.528 69.12 48.6054 69.12C42.683 69.12 37.1149 66.8137 32.9271 62.6259L23.308 53.0068C23.2853 52.9841 23.2636 52.9608 23.2429 52.9369C23.219 52.9162 23.1957 52.8944 23.173 52.8717L6.48893 36.1877C-2.15606 27.5426 -2.15606 13.476 6.48893 4.83086L9.06109 2.25885C12.0681 -0.74774 16.9607 -0.74774 19.9676 2.25885L29.7191 12.0102C32.7259 15.0172 32.7259 19.9098 29.7191 22.9168L24.9553 27.6804L41.4257 44.1508L42.7861 42.7906L46.1896 39.3872C47.6462 37.9306 49.5827 37.1284 51.6428 37.1284ZM25.1478 51.0328C25.1715 51.0534 25.1947 51.075 25.2172 51.0975L34.8362 60.7165C38.5142 64.3945 43.4041 66.42 48.6054 66.42C52.955 66.42 57.0863 65.0027 60.4735 62.388L43.7403 45.6547L42.3803 47.0146C41.8533 47.5418 40.9984 47.5419 40.4711 47.0146L22.0914 28.6349C21.8383 28.3816 21.696 28.0383 21.696 27.6803C21.696 27.3223 21.8383 26.979 22.0914 26.7257L23.0087 25.8084L6.72775 8.64205C0.854574 16.2721 1.41118 27.2915 8.39824 34.2784L25.0823 50.9624C25.1051 50.9853 25.127 51.0088 25.1478 51.0328ZM24.9179 23.8993L27.8098 21.0075C29.764 19.0533 29.764 15.8736 27.8098 13.9193L18.0584 4.16802C16.1042 2.21376 12.9245 2.21403 10.9703 4.16802L8.52122 6.61705L24.9179 23.8993ZM62.4976 60.5936L64.9468 58.1444C65.8935 57.1979 66.4148 55.9392 66.4148 54.6004C66.4148 53.2617 65.8934 52.003 64.9466 51.0564L55.1868 41.2964C54.2402 40.3496 52.9816 39.8283 51.6428 39.8283C50.304 39.8283 49.0454 40.3496 48.0988 41.2964L45.6496 43.7456L62.4976 60.5936Z" fill="#1E2228"/>
<path d="M52.5688 5.41144C51.2558 5.32221 50.005 5.76379 49.0465 6.65857C48.1014 7.5408 47.5592 8.78806 47.5592 10.0808C47.5592 10.8263 48.1636 11.4308 48.9092 11.4308C49.6548 11.4308 50.2592 10.8263 50.2592 10.0808C50.2592 9.52584 50.4828 9.01135 50.8888 8.63241C51.2942 8.25387 51.8243 8.06716 52.3832 8.10523C53.3604 8.17246 54.1481 8.96032 54.2154 9.93759C54.2836 10.9257 53.6358 11.7988 52.6756 12.0138C51.6241 12.2487 50.8897 13.1629 50.8897 14.2365V16.6681C50.8897 17.4136 51.494 18.0181 52.2397 18.0181C52.9853 18.0181 53.5897 17.4136 53.5897 16.6681V14.5639C55.6813 13.9399 57.0617 11.968 56.9089 9.75183C56.7496 7.43685 54.8836 5.57101 52.5688 5.41144Z" fill="#1E2228"/>
<path d="M52.2398 20.123C51.8847 20.123 51.5364 20.2663 51.2853 20.5172C51.0342 20.7697 50.8898 21.1166 50.8898 21.473C50.8898 21.8281 51.0342 22.1764 51.2853 22.4275C51.5364 22.6786 51.8847 22.823 52.2398 22.823C52.5948 22.823 52.9431 22.6787 53.1942 22.4275C53.4453 22.1763 53.5898 21.8281 53.5898 21.473C53.5898 21.1166 53.4453 20.7697 53.1942 20.5172C52.9431 20.2661 52.5948 20.123 52.2398 20.123Z" fill="#1E2228"/>
<path fill-rule="evenodd" clip-rule="evenodd" d="M42.1147 0H62.3647C66.0868 0 69.1147 3.02805 69.1146 6.75V22.1364C69.1146 25.8583 66.0866 28.8864 62.3646 28.8864H57.2501L53.3308 34.0284C53.0759 34.3626 52.68 34.5592 52.2596 34.56H52.2572C51.8377 34.56 51.442 34.3651 51.1865 34.0323L47.2346 28.8864H42.1147C38.3928 28.8864 35.3647 25.8583 35.3647 22.1364V6.75C35.3647 3.02805 38.3928 0 42.1147 0ZM62.3647 26.1864C64.5979 26.1864 66.4147 24.3695 66.4147 22.1364H66.415V6.75C66.415 4.51683 64.5982 2.7 62.365 2.7H42.115C39.8818 2.7 38.065 4.51683 38.065 6.75V22.1364C38.065 24.3695 39.8818 26.1864 42.115 26.1864H47.9003C48.3198 26.1864 48.7154 26.3813 48.971 26.7141L52.2534 30.9883L55.5082 26.718C55.7635 26.3829 56.1607 26.1864 56.5819 26.1864H62.3647Z" fill="#1E2228"/>
</svg>
