<svg width="49" height="48" viewBox="0 0 49 48" fill="none" xmlns="http://www.w3.org/2000/svg">
<circle cx="24.9838" cy="24" r="24" fill="#39579A"/>
<path d="M30.5025 14.0042L27.8849 14C24.944 14 23.0435 15.9499 23.0435 18.9678V21.2582H20.4116C20.1842 21.2582 20 21.4426 20 21.67V24.9887C20 25.2161 20.1844 25.4003 20.4116 25.4003H23.0435V33.7742C23.0435 34.0017 23.2277 34.1858 23.4551 34.1858H26.8891C27.1165 34.1858 27.3007 34.0015 27.3007 33.7742V25.4003H30.378C30.6054 25.4003 30.7896 25.2161 30.7896 24.9887L30.7909 21.67C30.7909 21.5608 30.7474 21.4563 30.6703 21.379C30.5932 21.3017 30.4882 21.2582 30.379 21.2582H27.3007V19.3166C27.3007 18.3833 27.523 17.9096 28.7387 17.9096L30.5021 17.9089C30.7293 17.9089 30.9135 17.7246 30.9135 17.4973V14.4158C30.9135 14.1888 30.7295 14.0046 30.5025 14.0042Z" fill="white"/>
</svg>
