<svg width="48" height="48" viewBox="0 0 48 48" fill="none" xmlns="http://www.w3.org/2000/svg">
<circle cx="24" cy="24" r="24" fill="url(#paint0_linear_9150_22101)"/>
<path fill-rule="evenodd" clip-rule="evenodd" d="M28.8503 12H19.1497C15.2074 12 12 15.2074 12 19.1497V28.8503C12 32.7926 15.2074 36 19.1497 36H28.8503C32.7926 36 36 32.7926 36 28.8503V19.1497C36 15.2074 32.7926 12 28.8503 12ZM19.1497 33.5856C16.5345 33.5856 14.4144 31.4655 14.4144 28.8503V19.1497C14.4144 16.5345 16.5345 14.4144 19.1497 14.4144H28.8503C31.4655 14.4144 33.5856 16.5345 33.5856 19.1497V28.8503C33.5856 31.4655 31.4655 33.5856 28.8503 33.5856H19.1497Z" fill="white"/>
<path fill-rule="evenodd" clip-rule="evenodd" d="M30.3673 23.8774C30.3673 20.434 27.5659 17.6326 24.1224 17.6326C20.679 17.6326 17.8775 20.434 17.8775 23.8774C17.8775 27.3209 20.679 30.1224 24.1224 30.1224C27.5659 30.1224 30.3673 27.3209 30.3673 23.8774ZM27.9383 23.8775C27.9383 25.985 26.2299 27.6934 24.1224 27.6934C22.015 27.6934 20.3066 25.9849 20.3066 23.8775C20.3066 21.77 22.015 20.0616 24.1224 20.0616C26.2299 20.0616 27.9383 21.77 27.9383 23.8775Z" fill="white"/>
<circle r="1.46939" transform="matrix(-1 0 0 1 17.8775 17.8776)" fill="white"/>
<defs>
<linearGradient id="paint0_linear_9150_22101" x1="4.39395" y1="43.6064" x2="43.606" y2="4.39365" gradientUnits="userSpaceOnUse">
<stop stop-color="#FFC107"/>
<stop offset="0.507" stop-color="#F44336"/>
<stop offset="0.99" stop-color="#9C27B0"/>
</linearGradient>
</defs>
</svg>
