<svg width="48" height="37" viewBox="0 0 48 37" fill="none" xmlns="http://www.w3.org/2000/svg">
<path d="M10.744 17.4354C15.0336 17.4354 18.5109 13.8583 18.5109 9.44573C18.5109 5.03315 15.0336 1.45605 10.744 1.45605C6.45443 1.45605 2.97705 5.03315 2.97705 9.44573C2.97705 13.8583 6.45443 17.4354 10.744 17.4354Z" fill="#FF2C91"/>
<path d="M30.8235 17.4354C35.113 17.4354 38.5904 13.8583 38.5904 9.44573C38.5904 5.03315 35.113 1.45605 30.8235 1.45605C26.5339 1.45605 23.0565 5.03315 23.0565 9.44573C23.0565 13.8583 26.5339 17.4354 30.8235 17.4354Z" fill="#FF2C91"/>
<path d="M1.68786 12.3802L2.84689 11.1343C2.84689 11.1343 8.87661 25.3803 18.1554 12.0975L22.2854 11.9275C22.2854 11.9275 25.7896 17.846 29.7642 17.7618C33.7389 17.6775 36.9959 15.1869 38.2541 11.4177L39.9061 11.984C39.9061 11.984 39.2175 29.176 30.7653 32.4326C22.3125 35.6899 14.4656 38.6067 5.27001 27.7879C5.27001 27.7879 -1.38152 18.9058 1.68786 12.3802Z" fill="white"/>
<path d="M41.3768 12.1197C41.1574 12.1197 40.9413 12.1305 40.7285 12.1523C40.3519 9.74194 39.5794 7.46752 38.4812 5.40383C38.1515 4.78322 37.7907 4.18165 37.4041 3.60047C37.4008 3.59708 37.3988 3.59368 37.3975 3.59096C35.8288 1.53746 33.4466 0.173219 30.7499 0.0155189C30.7394 0.0141594 30.7281 0.0141602 30.7176 0.0141602C32.3497 1.15613 33.7916 2.56251 34.9856 4.17486C34.9869 4.17622 34.9869 4.17689 34.9869 4.17689C35.0431 4.22991 35.0979 4.28429 35.1502 4.34071C35.1786 4.36858 35.207 4.39917 35.2347 4.42976C35.2486 4.44267 35.2612 4.45559 35.2717 4.46986C35.3035 4.50249 35.3332 4.5358 35.3623 4.56979C35.4416 4.65883 35.5182 4.74992 35.5909 4.84304C35.618 4.87635 35.6444 4.91034 35.6702 4.94364C35.7977 5.10746 35.9167 5.2774 36.0283 5.45345C36.0653 5.50851 36.0997 5.56493 36.1347 5.6227C36.1367 5.62678 36.14 5.63222 36.1433 5.63766C36.179 5.69748 36.214 5.75661 36.2477 5.81779C36.2761 5.86877 36.3046 5.92111 36.3323 5.97413C36.3521 6.01016 36.37 6.04686 36.3885 6.08357C36.4096 6.12231 36.4288 6.16174 36.4473 6.20184C36.4684 6.24535 36.4896 6.28953 36.5094 6.33439C36.5484 6.41868 36.5854 6.50433 36.6211 6.59134C36.6211 6.5927 36.6224 6.5927 36.6211 6.59337C36.6402 6.63552 36.6568 6.67902 36.6726 6.72253C36.6832 6.74768 36.6924 6.77351 36.7023 6.79934C36.7169 6.83604 36.7308 6.87411 36.7433 6.91217C36.7717 6.98898 36.7982 7.06647 36.8226 7.14397C36.8385 7.19359 36.8543 7.24389 36.8689 7.29487L36.8847 7.34993C36.8847 7.34993 36.886 7.35129 36.886 7.35197C37.683 9.04044 38.2393 10.8717 38.5116 12.7981C38.5294 12.9204 38.544 13.0441 38.5592 13.1678C38.5645 13.2134 38.5697 13.2589 38.575 13.3045C38.5843 13.3826 38.5929 13.4615 38.6001 13.5396C38.6127 13.66 38.6246 13.7803 38.6338 13.902C38.6404 13.9781 38.6464 14.0535 38.6517 14.131C38.6609 14.2602 38.6689 14.39 38.6748 14.5205C38.6788 14.5892 38.6834 14.6558 38.6854 14.7231C38.694 14.9202 38.6993 15.118 38.7012 15.3165C38.7026 15.3824 38.7026 15.4497 38.7026 15.5163C38.7026 17.5651 38.3834 19.537 37.792 21.3818C37.5349 22.1866 37.225 22.9663 36.8689 23.7188C33.9118 29.952 27.6911 34.2459 20.4958 34.2459C10.4392 34.2459 2.28832 25.8606 2.28832 15.5163C2.28832 14.6979 2.3392 13.8911 2.43898 13.1005C2.7033 10.9838 3.31189 8.97791 4.20462 7.14261C4.20594 7.14057 4.20594 7.13921 4.2066 7.13853C4.2099 7.12629 4.21387 7.11474 4.21717 7.10386C4.23501 7.0488 4.25418 6.99442 4.27334 6.94004C4.2925 6.88566 4.31233 6.83128 4.33215 6.77826C4.35329 6.72389 4.37312 6.67087 4.39559 6.61785C4.41343 6.57434 4.43127 6.53016 4.45043 6.48665C4.46827 6.44451 4.48744 6.40101 4.50726 6.3575C4.52642 6.31536 4.54625 6.27186 4.56607 6.22971C4.58589 6.18757 4.60704 6.14543 4.62818 6.1026C4.67047 6.01831 4.71343 5.93539 4.75902 5.8545C4.77686 5.82119 4.79602 5.78584 4.81585 5.75254C4.88986 5.62338 4.96651 5.49763 5.04779 5.37528C5.07752 5.32838 5.10792 5.28283 5.13964 5.23865C5.17135 5.19175 5.20373 5.14621 5.23743 5.10066C5.27113 5.05376 5.30483 5.00822 5.33986 4.96404C5.37356 4.91849 5.40858 4.87431 5.44426 4.83081C5.58898 4.65 5.74162 4.47734 5.90285 4.31216C5.90285 4.3108 5.90417 4.3108 5.90483 4.31012C7.11739 2.64136 8.59426 1.18943 10.27 0.0168787C10.233 0.0182381 10.196 0.0209575 10.159 0.0236765C7.2317 0.231677 4.68501 1.86374 3.16916 4.25031C3.10043 4.3611 3.03303 4.47122 2.96695 4.58406C2.94383 4.62213 2.92268 4.66019 2.90021 4.69826C1.05859 7.86109 0 11.5616 0 15.5163C0 27.1596 9.17509 36.5978 20.4951 36.5978C28.488 36.5978 35.4112 31.8913 38.7898 25.0266C39.5834 25.3801 40.4583 25.5751 41.3774 25.5751C44.9887 25.5751 47.9173 22.5625 47.9173 18.8477C47.9173 15.133 44.9887 12.1204 41.3774 12.1204L41.3768 12.1197ZM41.3768 23.3225C40.7715 23.3225 40.1953 23.1954 39.6713 22.9656C40.5217 20.6491 40.9882 18.1388 40.9882 15.5157C40.9882 15.1384 40.979 14.7639 40.9598 14.3914C41.0966 14.3771 41.236 14.371 41.3774 14.371C43.7807 14.371 45.7288 16.3749 45.7288 18.8471C45.7288 21.3193 43.7807 23.3225 41.3774 23.3225H41.3768Z" fill="#FF2C91"/>
<path d="M31.3267 16.4231C30.9679 16.4822 30.5999 16.5128 30.2252 16.5128C28.3076 16.5128 26.5724 15.7134 25.3168 14.4212C24.2094 13.284 23.4739 11.7628 23.3153 10.0675H23.3437C23.3279 9.83707 23.3166 9.60664 23.3166 9.37213C23.3166 8.87932 23.3536 8.39534 23.425 7.92292C23.7039 6.53217 24.3765 5.2896 25.3168 4.32301C26.5724 3.03082 28.3076 2.23145 30.2252 2.23145C30.2979 2.23145 30.3706 2.23281 30.4419 2.23484C30.4882 2.23688 30.5358 2.23824 30.582 2.24096C30.8318 2.25456 31.0789 2.28039 31.3215 2.32049C31.3228 2.32049 31.3248 2.32117 31.3261 2.32117C29.8499 2.56316 28.529 3.28369 27.5193 4.32301C26.2631 5.61452 25.4847 7.39952 25.4847 9.37213C25.4847 11.3447 26.2631 13.1304 27.5193 14.4212C28.5296 15.4606 29.8499 16.1818 31.3267 16.4231Z" fill="#FF72B6"/>
<path d="M11.9001 16.4231C11.5413 16.4822 11.1732 16.5128 10.7985 16.5128C7.4437 16.5128 4.64525 14.0651 3.99767 10.8111C3.92697 10.3414 3.89062 9.86154 3.89062 9.37213C3.89062 8.88271 3.92565 8.42321 3.99305 7.9637C3.99305 7.96166 3.99305 7.9603 3.99371 7.95826C4.01684 7.83931 4.04327 7.72172 4.07234 7.6048C4.08622 7.54838 4.10076 7.49196 4.11662 7.43554C4.13115 7.38049 4.14833 7.32407 4.16419 7.26833C4.17675 7.22618 4.19063 7.18404 4.20318 7.14258C4.20384 7.14054 4.20384 7.13918 4.20516 7.1385C4.20847 7.12626 4.21243 7.11471 4.21574 7.10383C4.23358 7.04809 4.25274 6.99439 4.27124 6.94001C4.2904 6.88563 4.31023 6.83125 4.33071 6.77823C4.35186 6.72386 4.37168 6.67084 4.39349 6.61782C4.41199 6.57431 4.42983 6.53013 4.44833 6.48663C4.46684 6.44448 4.48534 6.40098 4.50582 6.35747C4.52432 6.31533 4.54481 6.27183 4.56463 6.22968C4.58446 6.18754 4.6056 6.14472 4.62675 6.10257C4.66904 6.01828 4.71199 5.93604 4.75758 5.85447C4.77542 5.82048 4.79459 5.78581 4.81441 5.75251C4.88842 5.62335 4.96507 5.4976 5.04635 5.37525C5.07609 5.32835 5.10648 5.2828 5.1382 5.23862C5.16992 5.19172 5.2023 5.14618 5.236 5.10063C5.2697 5.05441 5.3034 5.00887 5.33842 4.964C5.37212 4.91846 5.40714 4.87428 5.44283 4.83078C5.58688 4.64997 5.74018 4.47731 5.90141 4.31213C5.90141 4.31213 5.90207 4.31213 5.9034 4.31009C5.97939 4.23192 6.05736 4.15647 6.13732 4.08238C6.17036 4.05111 6.20406 4.02052 6.23776 3.99062C6.26815 3.96207 6.29987 3.9342 6.33225 3.90701C6.37058 3.87302 6.40956 3.84039 6.44855 3.80912C6.64216 3.64667 6.84568 3.49576 7.0578 3.35574C7.10934 3.32243 7.16088 3.2898 7.21243 3.25717C7.26529 3.22455 7.31815 3.19328 7.37102 3.16201C7.42454 3.13074 7.47806 3.10015 7.53225 3.07093C7.58379 3.0417 7.63665 3.01451 7.68819 2.98732C7.69414 2.98392 7.70075 2.97984 7.70802 2.97644C7.75758 2.95129 7.80582 2.9275 7.85537 2.90371C7.86066 2.90031 7.86595 2.89827 7.87256 2.89623C7.91485 2.87584 7.95714 2.85477 8.00009 2.83641C8.06947 2.80379 8.14018 2.77388 8.21088 2.74533C8.24855 2.72902 8.28687 2.7127 8.32586 2.69911C8.39987 2.66988 8.47454 2.64133 8.54921 2.6155C8.59282 2.59918 8.63709 2.58491 8.68004 2.57064C8.75471 2.54617 8.8307 2.52237 8.90669 2.50062C8.96683 2.48295 9.02696 2.46596 9.08775 2.45032C9.13863 2.43673 9.18885 2.42449 9.23973 2.41226C9.28269 2.40206 9.3263 2.39186 9.37057 2.38303C9.38445 2.38031 9.39766 2.37691 9.41154 2.37487C9.44854 2.36603 9.48423 2.35924 9.52123 2.35312C9.60449 2.3368 9.68775 2.32117 9.77101 2.30962C9.80934 2.30282 9.84832 2.29738 9.88731 2.2933C9.93885 2.28582 9.99039 2.27903 10.0433 2.27359C10.0895 2.26815 10.1358 2.26407 10.182 2.25999C10.1979 2.25728 10.2131 2.2566 10.2283 2.25524C10.26 2.25184 10.2917 2.2498 10.3248 2.24912C10.3637 2.24572 10.4027 2.24232 10.4417 2.24096C10.4952 2.23824 10.5488 2.23552 10.6029 2.23484C10.6684 2.23281 10.7338 2.23145 10.7985 2.23145C11.1732 2.23145 11.5406 2.26203 11.8988 2.32117C11.8406 2.33069 11.7818 2.34156 11.7236 2.35312C11.6866 2.35924 11.651 2.36603 11.614 2.37487C11.6007 2.37691 11.5869 2.38031 11.573 2.38303C11.5287 2.39186 11.4858 2.40206 11.4422 2.41226C11.3919 2.42449 11.3411 2.43673 11.2908 2.45032C11.2294 2.46596 11.1692 2.48295 11.1091 2.50062C11.0331 2.52237 10.9578 2.54617 10.8825 2.57064C10.8395 2.58491 10.7952 2.59918 10.7516 2.6155C10.677 2.64133 10.6023 2.66988 10.5283 2.69911C10.4893 2.7127 10.4516 2.72902 10.4133 2.74533C10.3426 2.77388 10.2726 2.80379 10.2025 2.83641C10.1596 2.85477 10.1173 2.87584 10.075 2.89623C10.069 2.89827 10.0637 2.90031 10.0585 2.90371C10.0089 2.9275 9.96 2.95129 9.91044 2.97644C9.90317 2.97984 9.89722 2.98392 9.89061 2.98732C9.83907 3.01451 9.78621 3.0417 9.73467 3.07093C9.68114 3.10015 9.62696 3.13074 9.57343 3.16201C9.52057 3.19328 9.46771 3.22455 9.4155 3.25717C9.3633 3.2898 9.31176 3.32243 9.26022 3.35574C9.0481 3.49576 8.84524 3.64667 8.65097 3.80912C8.61198 3.84039 8.573 3.87302 8.53533 3.90701C8.50229 3.9342 8.47057 3.96207 8.44018 3.99062C8.40648 4.02052 8.37278 4.05111 8.33974 4.08238C8.25978 4.15647 8.18181 4.23192 8.10582 4.31009C8.10582 4.31145 8.10383 4.31145 8.10383 4.31213C7.9426 4.47731 7.78996 4.64997 7.64524 4.83078C7.60956 4.87428 7.57454 4.91846 7.54084 4.964C7.50648 5.00887 7.47278 5.05441 7.43842 5.10063C7.40472 5.14618 7.37234 5.19172 7.34062 5.23862C7.3089 5.2828 7.2785 5.32835 7.24877 5.37525C7.16749 5.4976 7.09084 5.62335 7.01683 5.75251C6.99701 5.78581 6.97784 5.82048 6.96 5.85447C6.91507 5.93604 6.87146 6.01828 6.82917 6.10257C6.80802 6.14472 6.78754 6.18754 6.76705 6.22968C6.74723 6.27183 6.7274 6.31533 6.70824 6.35747C6.68842 6.40098 6.66925 6.44448 6.65141 6.48663C6.63225 6.53013 6.61441 6.57431 6.59657 6.61782C6.5741 6.67084 6.55428 6.72386 6.53313 6.77823C6.51331 6.83125 6.49282 6.88563 6.47432 6.94001C6.45516 6.99439 6.43599 7.04809 6.41815 7.10383C6.41485 7.11471 6.41088 7.12626 6.40758 7.1385C6.40692 7.13918 6.40692 7.14054 6.4056 7.14258C6.39304 7.18404 6.37917 7.22618 6.36661 7.26833C6.35075 7.32407 6.33423 7.38049 6.31903 7.43554C6.30318 7.49196 6.28864 7.54838 6.27476 7.6048C6.173 8.01468 6.10494 8.43952 6.07652 8.87524C6.06926 8.97448 6.06529 9.07372 6.06331 9.17364C6.06066 9.23958 6.06 9.30619 6.06 9.37213C6.06 12.9306 8.58951 15.8806 11.9001 16.4231Z" fill="#FF72B6"/>
<path d="M38.481 5.40394C38.1883 4.75955 37.8255 4.15458 37.4039 3.60059C37.4006 3.59719 37.3987 3.59379 37.3973 3.59107C35.8286 1.53757 33.4465 0.173334 30.7498 0.0156338C30.7392 0.0142743 30.728 0.014275 30.7174 0.014275C30.5548 0.00475864 30.3903 0 30.2251 0C25.1938 0 21.1141 4.19536 21.1141 9.37159C21.1141 9.6061 21.126 9.83654 21.1412 10.067H19.8837C19.8996 9.83722 19.9108 9.6061 19.9108 9.37159C19.9108 4.19604 15.8311 0 10.7985 0C10.6201 0 10.4443 0.0054383 10.2685 0.0163142C10.2315 0.0176736 10.1945 0.020392 10.1575 0.023111C7.23022 0.231112 4.68353 1.86317 3.16767 4.24974C3.09895 4.36054 3.03155 4.47066 2.96547 4.58349C2.94234 4.62156 2.9212 4.65963 2.89873 4.69769C2.12825 6.07349 1.6875 7.66884 1.6875 9.37159C1.6875 10.6481 1.93596 11.8649 2.38397 12.9729C2.40116 13.015 2.419 13.0571 2.43684 13.1C3.83772 16.4225 7.05379 18.7439 10.7985 18.7439C14.8042 18.7439 18.204 16.0847 19.4245 12.3883H21.5972C22.8203 16.0847 26.2187 18.7439 30.2244 18.7439C33.9434 18.7439 37.141 16.4525 38.5577 13.1679C38.5577 13.1666 38.559 13.1666 38.559 13.1659V13.1645C39.0586 12.0056 39.3361 10.7222 39.3361 9.37159C39.3361 7.95297 39.0295 6.60844 38.481 5.40394ZM10.7992 16.5123C6.96524 16.5123 3.85754 13.3154 3.85754 9.37159C3.85754 9.30566 3.85886 9.23904 3.86084 9.17311C3.86283 9.07319 3.86745 8.97326 3.87472 8.8747C3.90313 8.43899 3.97054 8.01347 4.07296 7.60358C4.08683 7.54717 4.10137 7.49075 4.11723 7.43433C4.13177 7.37927 4.14895 7.32285 4.16481 7.26711C4.17736 7.22497 4.19124 7.18283 4.2038 7.14136C4.20512 7.13932 4.20512 7.13796 4.20578 7.13728C4.20908 7.12505 4.21304 7.11349 4.21635 7.10262C4.23419 7.04756 4.25335 6.99318 4.27252 6.9388C4.29168 6.88442 4.3115 6.83004 4.33133 6.77702C4.35247 6.72264 4.3723 6.66962 4.39476 6.6166C4.4126 6.5731 4.43045 6.52891 4.44961 6.48541C4.46745 6.44327 4.48661 6.39976 4.50644 6.35626C4.5256 6.31412 4.54542 6.27061 4.56525 6.22847C4.58507 6.18633 4.60622 6.14418 4.62736 6.10136C4.66965 6.01707 4.7126 5.93414 4.7582 5.85325C4.77604 5.81994 4.7952 5.7846 4.81503 5.75129C4.88904 5.62214 4.96569 5.49639 5.04696 5.37403C5.0767 5.32713 5.1071 5.28159 5.13882 5.23741C5.17053 5.1905 5.20291 5.14496 5.23661 5.09942C5.27031 5.05252 5.30401 5.00697 5.33904 4.96279C5.37274 4.91725 5.40776 4.87306 5.44344 4.82956C5.58815 4.64875 5.7408 4.4761 5.90203 4.31092C5.90203 4.30956 5.90335 4.30956 5.90401 4.30888C5.98 4.23071 6.05798 4.15458 6.13793 4.08117C6.17031 4.0499 6.20467 4.01931 6.23837 3.98872C6.26877 3.96085 6.30049 3.9323 6.33353 3.90511C6.37119 3.87181 6.41018 3.83918 6.44916 3.80723C6.64344 3.64477 6.8463 3.49387 7.05841 3.35384C7.10996 3.32054 7.1615 3.28791 7.2137 3.25528C7.26656 3.22265 7.31943 3.19139 7.37163 3.16012C7.42515 3.12885 7.47934 3.09826 7.53286 3.06903C7.5844 3.0398 7.63727 3.01261 7.68881 2.98542C7.69542 2.98202 7.70136 2.97795 7.70863 2.97455C7.75819 2.9494 7.80643 2.92561 7.85599 2.90182C7.86128 2.89842 7.86656 2.89638 7.87317 2.89434C7.91546 2.87395 7.95775 2.85287 8.0007 2.83452C8.07009 2.80189 8.14079 2.7713 8.2115 2.74344C8.24916 2.72712 8.28749 2.71081 8.32647 2.69653C8.40048 2.6673 8.47515 2.63876 8.54982 2.61293C8.59277 2.59661 8.63705 2.58234 8.68066 2.56874C8.75533 2.54359 8.83132 2.5198 8.90731 2.49805C8.96744 2.48038 9.02757 2.46338 9.08837 2.44843C9.13925 2.43415 9.18947 2.4226 9.24035 2.41036C9.2833 2.39949 9.32691 2.38997 9.37118 2.38113C9.38506 2.37773 9.39828 2.37434 9.41215 2.3723C9.44916 2.36346 9.48484 2.35734 9.52185 2.35055C9.6051 2.33423 9.68836 2.31928 9.77162 2.30704C9.80929 2.30024 9.84828 2.29481 9.88726 2.29073C9.9388 2.28325 9.99035 2.27645 10.0432 2.27102C10.0895 2.26558 10.1357 2.2615 10.1826 2.25674C10.1985 2.2547 10.213 2.25334 10.2289 2.25266C10.2606 2.24926 10.2923 2.24722 10.3247 2.24586C10.3637 2.24247 10.4027 2.23907 10.4417 2.23839C10.4952 2.23499 10.5494 2.23295 10.6029 2.23159C10.6683 2.22955 10.7337 2.22819 10.7992 2.22819C14.6331 2.22819 17.7408 5.42637 17.7408 9.36887C17.7408 13.3114 14.6331 16.5096 10.7992 16.5096V16.5123ZM30.2251 16.5123C28.3075 16.5123 26.5723 15.7129 25.3167 14.4207C24.0599 13.1306 23.2822 11.3442 23.2822 9.37159C23.2822 7.39898 24.0599 5.61398 25.3167 4.32247C26.5723 3.02961 28.3075 2.23091 30.2251 2.23091C30.2978 2.23091 30.3705 2.23227 30.4425 2.23431C30.4888 2.23635 30.5363 2.23771 30.5826 2.24111C30.8324 2.25402 31.0789 2.27985 31.3214 2.31996C31.3656 2.32675 31.4099 2.33423 31.4542 2.34307C31.511 2.35394 31.5678 2.36482 31.624 2.37638C31.6808 2.38861 31.737 2.40017 31.7925 2.41444C31.8632 2.43075 31.9326 2.44775 32.002 2.46746C32.0429 2.47834 32.0839 2.49057 32.1255 2.50213C32.1962 2.52252 32.267 2.54427 32.3377 2.56806C32.3727 2.57894 32.4064 2.59117 32.4401 2.60137C32.4487 2.60477 32.4573 2.60817 32.4652 2.61089C32.5148 2.6272 32.563 2.64555 32.6119 2.66391C32.6628 2.68226 32.7123 2.70197 32.7619 2.72236C32.7705 2.72576 32.7791 2.72916 32.7883 2.73324C32.8306 2.75091 32.8736 2.76791 32.9159 2.78762C33.0011 2.82364 33.0863 2.86239 33.1696 2.90385C33.2152 2.92561 33.2601 2.94736 33.3057 2.97115C33.354 2.9963 33.4029 3.02077 33.4511 3.04728C33.4987 3.07311 33.5469 3.1003 33.5945 3.12749C33.6896 3.18187 33.7835 3.23829 33.8747 3.29674C33.9209 3.32733 33.9665 3.35656 34.0114 3.38647C34.057 3.41706 34.102 3.44833 34.1462 3.4796C34.2361 3.54281 34.3233 3.60739 34.4099 3.67468C34.4661 3.71682 34.5196 3.76033 34.5731 3.80587C34.6035 3.83102 34.6346 3.85685 34.6636 3.882C34.7747 3.97649 34.8817 4.07369 34.9854 4.17497C34.9868 4.17633 34.9868 4.17701 34.9868 4.17701C35.0429 4.23003 35.0978 4.28441 35.15 4.34083C35.1784 4.3687 35.2068 4.39928 35.2346 4.42987C35.2484 4.44279 35.261 4.4557 35.2716 4.46998C35.3033 4.50261 35.333 4.53591 35.3621 4.5699C35.4414 4.65895 35.518 4.75003 35.5907 4.84316C35.6178 4.87646 35.6443 4.91045 35.67 4.94376C35.7976 5.10757 35.9165 5.27751 36.0282 5.45356C36.0652 5.50862 36.0995 5.56504 36.1346 5.62282C36.1365 5.6269 36.1399 5.63234 36.1432 5.63777C36.1788 5.69759 36.2139 5.75673 36.2476 5.8179C36.276 5.86889 36.3044 5.92123 36.3321 5.97425C36.352 6.01027 36.3698 6.04698 36.3883 6.08368C36.4095 6.12243 36.4286 6.16185 36.4471 6.20196C36.4683 6.24546 36.4894 6.28965 36.5092 6.33451C36.5482 6.4188 36.5852 6.50444 36.6209 6.59145C36.6209 6.59281 36.6222 6.59281 36.6209 6.59349C36.6401 6.63563 36.6566 6.67914 36.6725 6.72264C36.683 6.74779 36.6923 6.77362 36.7022 6.79945C36.7167 6.83616 36.7306 6.87422 36.7432 6.91229C36.7716 6.9891 36.798 7.06659 36.8225 7.14408C36.8383 7.1937 36.8542 7.244 36.8687 7.29498L36.8846 7.35004C36.8846 7.35004 36.8859 7.3514 36.8859 7.35208C36.8925 7.37383 36.8978 7.39558 36.9037 7.41734C36.9513 7.58727 36.9923 7.76196 37.0273 7.93802C37.0379 7.99308 37.0484 8.0495 37.059 8.10591C37.0716 8.17661 37.0821 8.24798 37.0927 8.31935C37.0993 8.36694 37.1053 8.41384 37.1119 8.46142C37.1191 8.51648 37.1244 8.57086 37.1297 8.62592C37.1383 8.70069 37.1443 8.77682 37.1495 8.85227C37.1528 8.90189 37.1562 8.95219 37.1581 9.00317C37.1614 9.06095 37.1634 9.11941 37.1654 9.17651C37.1667 9.24176 37.1674 9.30566 37.1674 9.37091C37.1674 13.3148 34.0597 16.5116 30.2258 16.5116L30.2251 16.5123Z" fill="#FF2C91"/>
<path d="M10.8515 11.1136C11.7773 11.1136 12.5279 10.3415 12.5279 9.38905C12.5279 8.43664 11.7773 7.66455 10.8515 7.66455C9.92561 7.66455 9.17505 8.43664 9.17505 9.38905C9.17505 10.3415 9.92561 11.1136 10.8515 11.1136Z" fill="white"/>
<path d="M30.2412 11.1136C31.1671 11.1136 31.9177 10.3415 31.9177 9.38905C31.9177 8.43664 31.1671 7.66455 30.2412 7.66455C29.3154 7.66455 28.5648 8.43664 28.5648 9.38905C28.5648 10.3415 29.3154 11.1136 30.2412 11.1136Z" fill="white"/>
<path d="M29.7571 24.2409L27.5084 25.1864C27.2124 26.8457 25.7983 28.1025 24.1014 28.1025C23.3613 28.1025 22.676 27.8639 22.1131 27.4581L19.8644 28.4036C20.9018 29.6061 22.4157 30.364 24.1007 30.364C27.2282 30.364 29.7637 27.7559 29.7637 24.5386C29.7637 24.4387 29.7617 24.3388 29.7564 24.2402L29.7571 24.2409Z" fill="#FF2C91"/>
<path d="M21.5979 34.212C21.2325 34.2344 20.8644 34.246 20.4937 34.246C10.4371 34.246 2.28625 25.8607 2.28625 15.5164C2.28625 14.698 2.33714 13.8911 2.43758 13.1006C2.92392 14.2541 3.62964 15.2873 4.49991 16.1438C4.80916 25.8213 12.2543 33.6403 21.5979 34.212Z" fill="#FF72B5"/>
</svg>
