<svg width="22" height="24" viewBox="0 0 22 24" fill="none" xmlns="http://www.w3.org/2000/svg">
<path d="M17.2107 5.09109L16.0415 6.57851C18.5619 8.5205 19.8191 11.6645 19.3229 14.7845C18.9594 17.0739 17.7171 19.0861 15.8251 20.4508C13.9325 21.8148 11.6173 22.3692 9.30529 22.0074C4.53253 21.2632 1.26001 16.813 2.01025 12.0865C2.37374 9.79686 3.61643 7.78453 5.50868 6.42022C7.16076 5.22932 9.13493 4.65734 11.1481 4.77079L9.50268 6.48017L10.7234 7.63367L13.3208 4.93342L13.3214 4.93441L14.4851 3.72443L13.2653 2.57218L13.2646 2.57255L10.5387 0L9.37422 1.20998L11.1504 2.88517C8.73592 2.77208 6.37099 3.46755 4.38856 4.89688C2.08543 6.55746 0.573181 9.00664 0.13039 11.794C-0.78296 17.5466 3.19991 22.964 9.00935 23.8693C9.57084 23.957 10.1321 24 10.6897 24C12.9274 24 15.1017 23.3035 16.9452 21.9742C19.2486 20.3133 20.7606 17.8642 21.2034 15.0775C21.8074 11.2807 20.2774 7.45395 17.2107 5.09109Z" fill="#1E2228"/>
</svg>
