<svg width="67" height="69" viewBox="0 0 67 69" fill="none" xmlns="http://www.w3.org/2000/svg">
<g clip-path="url(#clip0_9150_22009)">
<path fill-rule="evenodd" clip-rule="evenodd" d="M63.0845 14.4703C56.7665 12.5675 55.9767 5.66129 55.938 2.68659C55.9281 1.92715 55.2947 1.30786 54.5356 1.30786H10.8543C10.0951 1.30786 9.46175 1.92715 9.45179 2.68659C9.41271 5.66166 8.62337 12.5678 2.30528 14.4703C1.69401 14.6544 1.28219 15.2276 1.30911 15.8657C1.54617 21.485 4.06168 46.679 29.7565 65.7256C31.5059 67.0225 33.8846 67.0225 35.634 65.7256C61.3289 46.679 63.844 21.485 64.0815 15.8657C64.1076 15.2276 63.6958 14.6544 63.0845 14.4703Z" fill="#0EC7C2"/>
<path d="M31.0346 37C30.0466 37 29.0586 36.6368 28.2787 35.8583L23.131 30.7201C21.623 29.2149 21.623 26.7233 23.131 25.2182C24.6389 23.713 27.1348 23.713 28.6427 25.2182L31.1386 27.7097L39.4583 20.028C41.0182 18.5747 43.5141 18.6787 44.97 20.2358C46.4259 21.7929 46.322 24.2841 44.762 25.7374L33.6865 35.9619C32.9065 36.6366 31.9705 37 31.0346 37Z" fill="white"/>
<path fill-rule="evenodd" clip-rule="evenodd" d="M35.3109 65.8484C33.5858 67.0213 31.3176 66.9807 29.6292 65.723C4.05073 46.6773 1.54757 21.4862 1.309 15.8654C1.28331 15.2273 1.69438 14.6556 2.30366 14.4712C8.59092 12.5681 9.37637 5.65999 9.41674 2.68726C9.42775 1.92749 10.059 1.30786 10.8115 1.30786H16.3169C15.5645 1.30786 14.9332 1.92749 14.9222 2.68726C14.8819 5.65999 14.0964 12.5681 7.80914 14.4712C7.19987 14.6556 6.78879 15.2273 6.81448 15.8654C7.05305 21.4862 9.55622 46.6769 35.1347 65.723C35.1934 65.7677 35.2521 65.8082 35.3109 65.8484Z" fill="#49E4DF"/>
<path fill-rule="evenodd" clip-rule="evenodd" d="M64.0395 13.3173C65.3055 13.6949 66.1508 14.8718 66.0951 16.1785C65.3808 33.012 55.8482 53.0684 36.8919 66.9978C34.5964 68.6854 31.5113 68.6843 29.2166 66.9978C18.032 58.7792 9.82621 48.5212 4.82709 36.5084C0.857819 26.9699 0.138628 19.1135 0.013696 16.1785C-0.0419115 14.8718 0.803694 13.6949 2.07006 13.3173C7.50107 11.696 8.16651 5.53405 8.20024 2.96009C8.22063 1.40196 9.51851 0.134277 11.0933 0.134277H55.0159C56.59 0.134277 57.8878 1.40196 57.909 2.96009C57.9427 5.53405 58.6081 11.696 64.0395 13.3173ZM30.9823 64.6345C32.222 65.5459 33.8876 65.5459 35.1265 64.6345C60.5032 45.9873 62.907 21.0944 63.1294 16.1171C55.9264 13.9295 55 6.33407 54.9447 3.07553H11.1645C11.1093 6.33518 10.1821 13.9302 2.97943 16.1171C3.20261 21.0948 5.60745 45.9884 30.9823 64.6345Z" fill="#1E2228"/>
</g>
<defs>
<clipPath id="clip0_9150_22009">
<rect width="67" height="69" fill="white"/>
</clipPath>
</defs>
</svg>
