<svg width="17" height="18" viewBox="0 0 17 18" fill="none" xmlns="http://www.w3.org/2000/svg">
<path fill-rule="evenodd" clip-rule="evenodd" d="M9.74536 10.84C10.4311 10.1294 11.376 9.72777 12.3635 9.72729C14.3719 9.72729 15.9999 11.3553 15.9999 13.3637C15.9999 15.372 14.3719 17 12.3635 17C10.3552 17 8.72718 15.372 8.72718 13.3637C8.72575 13.171 8.7428 12.9786 8.77809 12.7891L6.25445 11.5237C5.2253 12.5913 3.65091 12.9271 2.2757 12.3722C0.900491 11.8173 0 10.483 0 9.00002C0 7.51708 0.900491 6.18271 2.2757 5.62782C3.65091 5.07293 5.2253 5.40871 6.25445 6.47638L8.77809 5.21093C8.7428 5.02148 8.72575 4.82909 8.72718 4.63638C8.72723 2.89528 9.96142 1.39852 11.6706 1.06675C13.3798 0.734968 15.0843 1.66128 15.7358 3.27592C16.3872 4.89056 15.8027 6.74039 14.3419 7.68761C12.881 8.63483 10.9536 8.41361 9.74536 7.16002L7.22173 8.42547C7.2896 8.8055 7.2896 9.19454 7.22173 9.57456L9.74536 10.84ZM12.7361 3.22959C12.0283 3.04361 11.2925 3.41249 11.0181 4.09093C10.9451 4.26347 10.908 4.44905 10.909 4.63638C10.9103 5.29581 11.355 5.87187 11.9926 6.04002C12.113 6.07572 12.238 6.09289 12.3635 6.09093C13.0954 6.09241 13.7144 5.54991 13.8089 4.8242C13.9034 4.09848 13.4439 3.41557 12.7361 3.22959ZM4.00718 10.4037C3.88685 10.4394 3.76178 10.4565 3.63627 10.4546C3.04409 10.4552 2.51121 10.0951 2.29082 9.54547C2.14536 9.19638 2.14536 8.80366 2.29082 8.45457C2.51121 7.90492 3.04409 7.54487 3.63627 7.54547C3.76178 7.54352 3.88685 7.56068 4.00718 7.59638C4.64552 7.76344 5.09075 8.34018 5.09075 9.00002C5.09075 9.65986 4.64552 10.2366 4.00718 10.4037ZM11.0181 13.9091C11.2385 14.4588 11.7714 14.8188 12.3635 14.8182C13.1669 14.8182 13.8181 14.167 13.8181 13.3637C13.8181 12.5603 13.1669 11.9091 12.3635 11.9091C12.238 11.9072 12.113 11.9243 11.9926 11.96C11.355 12.1282 10.9103 12.7042 10.909 13.3637C10.908 13.551 10.9451 13.7366 11.0181 13.9091Z" fill="#1E2228"/>
<path d="M12.3635 9.72729V9.46063H12.3634L12.3635 9.72729ZM9.74536 10.84L9.62583 11.0784L9.80111 11.1663L9.93726 11.0252L9.74536 10.84ZM8.72718 13.3637H8.99386L8.99384 13.3617L8.72718 13.3637ZM8.77809 12.7891L9.04025 12.8379L9.07699 12.6407L8.89762 12.5507L8.77809 12.7891ZM6.25445 11.5237L6.37399 11.2853L6.19861 11.1973L6.06246 11.3386L6.25445 11.5237ZM6.25445 6.47638L6.06246 6.66145L6.19861 6.8027L6.37399 6.71476L6.25445 6.47638ZM8.77809 5.21093L8.89762 5.4493L9.07699 5.35936L9.04025 5.16209L8.77809 5.21093ZM8.72718 4.63638L8.99385 4.63836V4.63639L8.72718 4.63638ZM11.6706 1.06675L11.7214 1.32853L11.6706 1.06675ZM15.7358 3.27592L15.4885 3.37569L15.7358 3.27592ZM9.74536 7.16002L9.93736 6.97496L9.80121 6.8337L9.62583 6.92164L9.74536 7.16002ZM7.22173 8.42547L7.1022 8.1871L6.9242 8.27635L6.95922 8.47236L7.22173 8.42547ZM7.22173 9.57456L6.95922 9.52768L6.9242 9.72369L7.1022 9.81294L7.22173 9.57456ZM11.0181 4.09093L11.2637 4.1948L11.2653 4.19093L11.0181 4.09093ZM10.909 4.63638L11.1757 4.63587L11.1757 4.63498L10.909 4.63638ZM11.9926 6.04002L12.0685 5.78425L12.0606 5.78217L11.9926 6.04002ZM12.3635 6.09093L12.3641 5.82422L12.3594 5.82429L12.3635 6.09093ZM13.8089 4.8242L14.0733 4.85863L13.8089 4.8242ZM3.63627 10.4546L3.64043 10.1879L3.636 10.1879L3.63627 10.4546ZM4.00718 10.4037L3.93963 10.1455L3.93134 10.148L4.00718 10.4037ZM2.29082 9.54547L2.53835 9.44622L2.53697 9.44291L2.29082 9.54547ZM2.29082 8.45457L2.53699 8.55714L2.53833 8.55381L2.29082 8.45457ZM3.63627 7.54547L3.636 7.81218L3.64043 7.81211L3.63627 7.54547ZM4.00718 7.59638L3.9313 7.85217L3.93967 7.85436L4.00718 7.59638ZM12.3635 14.8182V14.5515H12.3633L12.3635 14.8182ZM11.0181 13.9091L11.2656 13.8098L11.2637 13.8053L11.0181 13.9091ZM12.3635 11.9091L12.3594 12.1758H12.3635V11.9091ZM11.9926 11.96L12.0607 12.218L12.0685 12.2157L11.9926 11.96ZM10.909 13.3637L11.1757 13.3651L11.1757 13.3642L10.909 13.3637ZM12.3634 9.46063C11.3036 9.46114 10.2894 9.89216 9.55346 10.6549L9.93726 11.0252C10.5727 10.3666 11.4485 9.9944 12.3637 9.99396L12.3634 9.46063ZM16.2666 13.3637C16.2666 11.2081 14.5191 9.46063 12.3635 9.46063V9.99396C14.2246 9.99396 15.7332 11.5026 15.7332 13.3637H16.2666ZM12.3635 17.2667C14.5191 17.2667 16.2666 15.5192 16.2666 13.3637H15.7332C15.7332 15.2247 14.2246 16.7334 12.3635 16.7334V17.2667ZM8.46052 13.3637C8.46052 15.5192 10.208 17.2667 12.3635 17.2667V16.7334C10.5025 16.7334 8.99385 15.2247 8.99385 13.3637H8.46052ZM8.51593 12.7403C8.47752 12.9465 8.45897 13.1559 8.46052 13.3656L8.99384 13.3617C8.99254 13.186 9.00808 13.0106 9.04025 12.8379L8.51593 12.7403ZM6.13492 11.762L8.65856 13.0275L8.89762 12.5507L6.37399 11.2853L6.13492 11.762ZM2.17592 12.6195C3.65198 13.2151 5.34182 12.8547 6.44645 11.7087L6.06246 11.3386C5.10877 12.328 3.64984 12.6391 2.37548 12.1249L2.17592 12.6195ZM-0.266667 9.00002C-0.266667 10.5917 0.69986 12.0239 2.17592 12.6195L2.37548 12.1249C1.10112 11.6107 0.266667 10.3742 0.266667 9.00002H-0.266667ZM2.17592 5.38052C0.69986 5.9761 -0.266667 7.40833 -0.266667 9.00002H0.266667C0.266667 7.62583 1.10112 6.38931 2.37548 5.87511L2.17592 5.38052ZM6.44645 6.29132C5.34182 5.14534 3.65198 4.78494 2.17592 5.38052L2.37548 5.87511C3.64984 5.36092 5.10877 5.67207 6.06246 6.66145L6.44645 6.29132ZM8.65856 4.97255L6.13492 6.23801L6.37399 6.71476L8.89762 5.4493L8.65856 4.97255ZM8.46052 4.63441C8.45897 4.84415 8.47752 5.05356 8.51593 5.25976L9.04025 5.16209C9.00808 4.9894 8.99254 4.81402 8.99384 4.63836L8.46052 4.63441ZM11.6198 0.804965C9.78526 1.16107 8.46056 2.7676 8.46052 4.63638L8.99385 4.63639C8.99389 3.02297 10.1376 1.63597 11.7214 1.32853L11.6198 0.804965ZM15.9831 3.17614C15.2839 1.4431 13.4543 0.448857 11.6198 0.804965L11.7214 1.32853C13.3053 1.02108 14.8848 1.87946 15.4885 3.37569L15.9831 3.17614ZM14.4869 7.91136C16.055 6.89468 16.6823 4.90919 15.9831 3.17614L15.4885 3.37569C16.0922 4.87192 15.5505 6.58611 14.1968 7.46386L14.4869 7.91136ZM9.55336 7.34508C10.8502 8.6906 12.9189 8.92805 14.4869 7.91136L14.1968 7.46386C12.843 8.34162 11.057 8.13662 9.93736 6.97496L9.55336 7.34508ZM7.34126 8.66385L9.86489 7.3984L9.62583 6.92164L7.1022 8.1871L7.34126 8.66385ZM7.48424 9.62145C7.55766 9.21042 7.55766 8.78962 7.48424 8.37859L6.95922 8.47236C7.02155 8.82137 7.02155 9.17867 6.95922 9.52768L7.48424 9.62145ZM9.86489 10.6016L7.34126 9.33619L7.1022 9.81294L9.62583 11.0784L9.86489 10.6016ZM11.2653 4.19093C11.4894 3.63687 12.0903 3.33562 12.6684 3.4875L12.8039 2.97168C11.9663 2.7516 11.0956 3.18811 10.7709 3.99093L11.2653 4.19093ZM11.1757 4.63498C11.1749 4.4838 11.2048 4.33403 11.2637 4.19479L10.7725 3.98707C10.6854 4.19291 10.6412 4.4143 10.6423 4.63779L11.1757 4.63498ZM12.0606 5.78217C11.5399 5.64484 11.1767 5.17439 11.1757 4.63587L10.6423 4.6369C10.6438 5.41722 11.1701 6.09889 11.9246 6.29787L12.0606 5.78217ZM12.3594 5.82429C12.261 5.82583 12.1629 5.81237 12.0685 5.78437L11.9168 6.29567C12.0631 6.33907 12.2151 6.35994 12.3677 6.35756L12.3594 5.82429ZM13.5444 4.78977C13.4673 5.38243 12.9618 5.82547 12.3641 5.82426L12.363 6.35759C13.229 6.35935 13.9615 5.71739 14.0733 4.85863L13.5444 4.78977ZM12.6684 3.4875C13.2464 3.63938 13.6216 4.1971 13.5444 4.78977L14.0733 4.85863C14.1851 3.99987 13.6415 3.19175 12.8039 2.97168L12.6684 3.4875ZM3.63212 10.7212C3.78469 10.7236 3.93674 10.7027 4.08302 10.6593L3.93134 10.148C3.83696 10.176 3.73886 10.1895 3.64043 10.1879L3.63212 10.7212ZM2.04331 9.64472C2.30429 10.2956 2.9353 10.7219 3.63654 10.7212L3.636 10.1879C3.15287 10.1884 2.71814 9.89465 2.53833 9.44623L2.04331 9.64472ZM2.04466 8.352C1.87186 8.76673 1.87186 9.23331 2.04466 9.64804L2.53697 9.44291C2.41887 9.15946 2.41887 8.84058 2.53697 8.55713L2.04466 8.352ZM3.63654 7.27881C2.9353 7.27809 2.30429 7.70445 2.04331 8.35532L2.53833 8.55381C2.71814 8.10539 3.15287 7.81165 3.636 7.81214L3.63654 7.27881ZM4.08302 7.34073C3.93673 7.29733 3.78469 7.27646 3.63212 7.27884L3.64043 7.81211C3.73886 7.81057 3.83696 7.82404 3.93134 7.85204L4.08302 7.34073ZM5.35741 9.00002C5.35741 8.21891 4.83036 7.53617 4.0747 7.3384L3.93967 7.85436C4.46068 7.99072 4.82408 8.46146 4.82408 9.00002H5.35741ZM4.0747 10.6616C4.83036 10.4639 5.35741 9.78113 5.35741 9.00002H4.82408C4.82408 9.53858 4.46068 10.0093 3.93967 10.1457L4.0747 10.6616ZM12.3633 14.5515C11.8801 14.552 11.4454 14.2583 11.2656 13.8099L10.7706 14.0084C11.0316 14.6592 11.6626 15.0856 12.3638 15.0849L12.3633 14.5515ZM13.5514 13.3637C13.5514 14.0197 13.0196 14.5515 12.3635 14.5515V15.0849C13.3141 15.0849 14.0848 14.3143 14.0848 13.3637H13.5514ZM12.3635 12.1758C13.0196 12.1758 13.5514 12.7076 13.5514 13.3637H14.0848C14.0848 12.4131 13.3141 11.6424 12.3635 11.6424V12.1758ZM12.0685 12.2157C12.1629 12.1877 12.261 12.1742 12.3594 12.1757L12.3677 11.6425C12.2151 11.6401 12.0631 11.661 11.9168 11.7044L12.0685 12.2157ZM11.1757 13.3642C11.1767 12.8256 11.5399 12.3552 12.0606 12.2179L11.9246 11.7022C11.1701 11.9011 10.6438 12.5828 10.6423 13.3631L11.1757 13.3642ZM11.2637 13.8053C11.2048 13.666 11.1749 13.5162 11.1757 13.3651L10.6423 13.3623C10.6412 13.5857 10.6854 13.8071 10.7725 14.013L11.2637 13.8053Z" fill="white"/>
</svg>
