<svg width="30" height="22" viewBox="0 0 30 22" fill="none" xmlns="http://www.w3.org/2000/svg">
<path fill-rule="evenodd" clip-rule="evenodd" d="M24.6504 3.49782L29.2849 8.13259C29.4474 8.29485 29.5385 8.5148 29.5385 8.74444V17.0864C29.5385 17.5644 29.1511 17.9518 28.6731 17.9518H25.7441C25.3418 19.9327 23.5871 21.4282 21.4895 21.4282C19.3918 21.4282 17.6372 19.9327 17.2349 17.9518H12.3036C11.9013 19.9327 10.1464 21.4282 8.04898 21.4282C5.95132 21.4282 4.19666 19.9327 3.79462 17.9518H3.18277C1.42766 17.9518 0 16.5243 0 14.7695V3.18254C0 1.42766 1.42766 0 3.18277 0H17.0866C18.8415 0 20.2692 1.42766 20.2692 3.18254V3.24429H24.0385C24.268 3.24429 24.4881 3.33534 24.6504 3.49782ZM26.584 7.87906L23.68 4.97506H20.2692V7.87906H26.584ZM1.73077 14.7695V3.18254C1.73077 2.38206 2.38206 1.73077 3.18277 1.73077H17.0866C17.8871 1.73077 18.5384 2.38206 18.5384 3.18254V13.9063C17.8857 14.5123 17.4188 15.3157 17.2349 16.221H12.3036C11.9013 14.2405 10.1464 12.745 8.04898 12.745C5.95155 12.745 4.19689 14.2405 3.79462 16.221H3.18277C2.38206 16.221 1.73077 15.5699 1.73077 14.7695ZM5.43863 17.0864C5.43863 18.526 6.6096 19.6974 8.04898 19.6974C9.48836 19.6974 10.6596 18.526 10.6596 17.0864C10.6596 15.647 9.48858 14.4758 8.04898 14.4758C6.6096 14.4758 5.43863 15.647 5.43863 17.0864ZM21.4895 19.6974C20.0499 19.6974 18.8789 18.526 18.8789 17.0864C18.8789 15.647 20.0499 14.4758 21.4895 14.4758C22.9289 14.4758 24.1001 15.647 24.1001 17.0864C24.1001 18.526 22.9289 19.6974 21.4895 19.6974ZM21.4895 12.745C23.5871 12.745 25.3418 14.2405 25.7441 16.221V16.2212H27.8077V9.60983H20.2692V12.921C20.6565 12.8072 21.0658 12.745 21.4895 12.745Z" fill="#1E2228"/>
</svg>
