<svg width="48" height="48" viewBox="0 0 48 48" fill="none" xmlns="http://www.w3.org/2000/svg">
<circle cx="24" cy="24" r="24" fill="#00ABF0"/>
<path d="M36 17.1161C35.1819 17.475 34.3101 17.7129 33.4013 17.8284C34.3363 17.2701 35.0499 16.3929 35.3854 15.3355C34.5136 15.8553 33.5511 16.2224 32.5254 16.4273C31.6976 15.5459 30.5179 15 29.2309 15C26.7339 15 24.7236 17.0267 24.7236 19.5114C24.7236 19.8689 24.7539 20.2126 24.8281 20.5399C21.0785 20.357 17.7606 18.5599 15.5317 15.8223C15.1426 16.4974 14.9144 17.2701 14.9144 18.102C14.9144 19.664 15.7187 21.0486 16.9177 21.8502C16.1931 21.8365 15.4822 21.6261 14.88 21.2948C14.88 21.3085 14.88 21.3264 14.88 21.3443C14.88 23.536 16.4434 25.3565 18.4935 25.7759C18.1264 25.8763 17.7263 25.9244 17.311 25.9244C17.0223 25.9244 16.7307 25.9079 16.4571 25.8474C17.0415 27.6335 18.6997 28.9466 20.6715 28.9893C19.137 30.1896 17.1886 30.9129 15.0794 30.9129C14.7095 30.9129 14.3548 30.8964 14 30.851C15.9979 32.1394 18.3656 32.875 20.919 32.875C29.2185 32.875 33.756 26 33.756 20.0408C33.756 19.8414 33.7491 19.6489 33.7395 19.4577C34.6346 18.8225 35.3867 18.0291 36 17.1161Z" fill="white"/>
</svg>
