<svg width="16" height="20" viewBox="0 0 16 20" fill="none" xmlns="http://www.w3.org/2000/svg">
<path fill-rule="evenodd" clip-rule="evenodd" d="M4.25268 10.5698C2.26468 10.582 0.57979 12.0607 0.325345 14.0365H0.324901V14.0607L0.0704564 16.6425V16.6667C0.0462341 16.788 0.0462341 16.9092 0.0462341 17.0183C0.0462341 18.6425 1.34312 19.9758 3.00379 20H3.01601H3.02823L12.0831 19.9758C13.7558 19.9758 15.0527 18.6303 15.0649 17.006C15.0649 16.8847 15.0527 16.7514 15.0285 16.6303H15.0407L14.7618 14.0243L14.7496 14C14.4829 12.0365 12.8102 10.582 10.8345 10.5698H4.25268ZM2.13135 14.2667V14.2425C2.27668 13.1878 3.18579 12.3878 4.25246 12.388H10.8342C11.8889 12.388 12.7978 13.1758 12.9433 14.2183L13.2222 16.8243L13.2342 16.8485L13.2465 17.006C13.2465 17.6243 12.7253 18.1576 12.0829 18.1576L3.05268 18.1818H3.02846H3.01623C2.37379 18.1818 1.86468 17.6485 1.86468 17.0183L1.8769 16.8727V16.8485L2.13135 14.2667Z" fill="#1D252D"/>
<path fill-rule="evenodd" clip-rule="evenodd" d="M7.57378 0C5.04045 0 2.992 2.04844 2.992 4.56978C2.992 7.10311 5.04045 9.15156 7.57378 9.15156C10.0951 9.15156 12.1436 7.10311 12.1436 4.56978C12.1436 2.04844 10.0949 0 7.57378 0ZM7.57378 1.81822C9.08889 1.81822 10.3253 3.05467 10.3253 4.56978C10.3253 6.09689 9.08889 7.33333 7.57378 7.33333C6.04645 7.33333 4.81 6.09689 4.81023 4.56978C4.81023 3.05467 6.04645 1.81822 7.57378 1.81822Z" fill="#1D252D"/>
</svg>
