<svg width="77" height="70" viewBox="0 0 77 70" fill="none" xmlns="http://www.w3.org/2000/svg">
<path d="M66.4448 21.3972H8.4458L50.1098 2.64117C52.1528 1.72017 54.5648 2.44317 55.7648 4.33916L66.4448 21.3972Z" fill="#FFA300"/>
<path d="M70.2184 67.5515H6.78101C4.29581 67.5515 2.28101 65.5367 2.28101 63.0515V24.7043C2.28101 22.2191 4.29581 20.2043 6.78101 20.2043H70.2187C72.7039 20.2043 74.7187 22.2191 74.7187 24.7043V63.0512C74.7184 65.5367 72.7039 67.5515 70.2184 67.5515Z" fill="#FFA300"/>
<circle cx="61" cy="44" r="6.35" stroke="#1E2228" stroke-width="2.7"/>
<path d="M11.2808 67.5521H6.78076C4.29676 67.5521 2.28076 65.5361 2.28076 63.0521V24.7031C2.28076 22.2191 4.29676 20.2031 6.78076 20.2031H11.2808C8.79676 20.2031 6.78076 22.2191 6.78076 24.7031V63.0521C6.78076 65.5361 8.79676 67.5521 11.2808 67.5521Z" fill="#FFC357"/>
<path d="M74.7187 24.7031V63.0521C74.7187 65.5361 72.7027 67.5521 70.2187 67.5521H65.7188C68.2027 67.5521 70.2187 65.5361 70.2187 63.0521V24.7031C70.2187 22.2191 68.2027 20.2031 65.7188 20.2031H70.2187C72.7027 20.2031 74.7187 22.2191 74.7187 24.7031Z" fill="#FFC357"/>
<path d="M2.28076 30.1721H6.78076V57.5831H2.28076V30.1721Z" fill="#FFC357"/>
<path d="M70.2188 30.1721H74.7187V57.5831H70.2188V30.1721Z" fill="#FFC357"/>
<path fill-rule="evenodd" clip-rule="evenodd" d="M70.2185 19.0047H66.4606L56.7788 3.69626C55.2691 1.30976 52.1903 0.386355 49.6166 1.54826L10.9418 19.0047H6.78105C3.63795 19.0047 1.08105 21.5616 1.08105 24.7047V63.0513C1.08105 66.1944 3.63795 68.7513 6.78105 68.7513H70.2188C73.3618 68.7513 75.9187 66.1944 75.9187 63.0513V24.7047C75.9184 21.5616 73.3615 19.0047 70.2185 19.0047ZM50.6039 3.73556C52.0946 3.06206 53.8763 3.59786 54.7502 4.97936L63.6208 19.0047H16.775L50.6039 3.73556ZM70.2188 21.4047H6.78105C4.96125 21.4047 3.48105 22.8849 3.48105 24.7047V28.9719H73.5188V24.7047C73.5188 22.8852 72.0382 21.4047 70.2188 21.4047ZM73.5185 56.3841H3.48105V31.3716H73.5188V56.3841H73.5185ZM6.78105 66.3513H70.2185C72.0383 66.3513 73.5184 64.8711 73.5188 63.0513V58.7841H3.48105V63.0513C3.48105 64.8708 4.96155 66.3513 6.78105 66.3513Z" fill="#1E2228"/>
<path d="M66.4606 19.0047L66.2494 19.1383L66.323 19.2547H66.4606V19.0047ZM56.7788 3.69626L56.99 3.56262L56.99 3.56261L56.7788 3.69626ZM49.6166 1.54826L49.7194 1.77612L49.7194 1.77611L49.6166 1.54826ZM10.9418 19.0047V19.2547H10.9956L11.0446 19.2325L10.9418 19.0047ZM75.9187 24.7047H76.1687V24.7046L75.9187 24.7047ZM54.7502 4.97936L54.9614 4.84572L54.9614 4.84571L54.7502 4.97936ZM50.6039 3.73556L50.7067 3.96342L50.7068 3.96338L50.6039 3.73556ZM63.6208 19.0047V19.2547H64.0748L63.8321 18.871L63.6208 19.0047ZM16.775 19.0047L16.6721 18.7768L16.775 19.2547V19.0047ZM3.48105 28.9719H3.23105V29.2219H3.48105V28.9719ZM73.5188 28.9719V29.2219H73.7688V28.9719H73.5188ZM3.48105 56.3841H3.23105V56.6341H3.48105V56.3841ZM3.48105 31.3716V31.1216H3.23105V31.3716H3.48105ZM73.5188 31.3716H73.7688V31.1216H73.5188V31.3716ZM73.5188 56.3841V56.6341H73.7688V56.3841H73.5188ZM73.5188 63.0513L73.7688 63.0513V63.0513H73.5188ZM73.5188 58.7841H73.7688V58.5341H73.5188V58.7841ZM3.48105 58.7841V58.5341H3.23105V58.7841H3.48105ZM66.4606 19.2547H70.2185V18.7547H66.4606V19.2547ZM56.5675 3.82989L66.2494 19.1383L66.6719 18.871L56.99 3.56262L56.5675 3.82989ZM49.7194 1.77611C52.1796 0.665482 55.1245 1.5487 56.5675 3.8299L56.99 3.56261C55.4138 1.07082 52.201 0.107229 49.5137 1.3204L49.7194 1.77611ZM11.0446 19.2325L49.7194 1.77612L49.5137 1.32039L10.8389 18.7768L11.0446 19.2325ZM6.78105 19.2547H10.9418V18.7547H6.78105V19.2547ZM1.33105 24.7047C1.33105 21.6996 3.77603 19.2547 6.78105 19.2547V18.7547C3.49988 18.7547 0.831055 21.4235 0.831055 24.7047H1.33105ZM1.33105 63.0513V24.7047H0.831055V63.0513H1.33105ZM6.78105 68.5013C3.77603 68.5013 1.33105 66.0563 1.33105 63.0513H0.831055C0.831055 66.3324 3.49988 69.0013 6.78105 69.0013V68.5013ZM70.2188 68.5013H6.78105V69.0013H70.2188V68.5013ZM75.6687 63.0513C75.6687 66.0563 73.2238 68.5013 70.2188 68.5013V69.0013C73.4999 69.0013 76.1687 66.3324 76.1687 63.0513H75.6687ZM75.6687 24.7047V63.0513H76.1687V24.7047H75.6687ZM70.2185 19.2547C73.2235 19.2547 75.6685 21.6996 75.6687 24.7047L76.1687 24.7046C76.1684 21.4235 73.4996 18.7547 70.2185 18.7547V19.2547ZM54.9614 4.84571C54.021 3.35905 52.1054 2.78284 50.5009 3.50773L50.7068 3.96338C52.0837 3.34127 53.7315 3.83666 54.5389 5.113L54.9614 4.84571ZM63.8321 18.871L54.9614 4.84572L54.5389 5.11299L63.4096 19.1383L63.8321 18.871ZM16.775 19.2547H63.6208V18.7547H16.775V19.2547ZM50.501 3.50769L16.6721 18.7768L16.8778 19.2325L50.7067 3.96342L50.501 3.50769ZM6.78105 21.6547H70.2188V21.1547H6.78105V21.6547ZM3.73105 24.7047C3.73105 23.0229 5.09933 21.6547 6.78105 21.6547V21.1547C4.82318 21.1547 3.23105 22.7468 3.23105 24.7047H3.73105ZM3.73105 28.9719V24.7047H3.23105V28.9719H3.73105ZM73.5188 28.7219H3.48105V29.2219H73.5188V28.7219ZM73.2688 24.7047V28.9719H73.7688V24.7047H73.2688ZM70.2188 21.6547C71.9002 21.6547 73.2688 23.0232 73.2688 24.7047H73.7688C73.7688 22.7471 72.1763 21.1547 70.2188 21.1547V21.6547ZM3.48105 56.6341H73.5185V56.1341H3.48105V56.6341ZM3.23105 31.3716V56.3841H3.73105V31.3716H3.23105ZM73.5188 31.1216H3.48105V31.6216H73.5188V31.1216ZM73.7688 56.3841V31.3716H73.2688V56.3841H73.7688ZM73.5185 56.6341H73.5188V56.1341H73.5185V56.6341ZM70.2185 66.1013H6.78105V66.6013H70.2185V66.1013ZM73.2688 63.0512C73.2685 64.733 71.9002 66.1013 70.2185 66.1013V66.6013C72.1763 66.6013 73.7684 65.0091 73.7688 63.0513L73.2688 63.0512ZM73.2688 58.7841V63.0513H73.7688V58.7841H73.2688ZM3.48105 59.0341H73.5188V58.5341H3.48105V59.0341ZM3.73105 63.0513V58.7841H3.23105V63.0513H3.73105ZM6.78105 66.1013C5.09963 66.1013 3.73105 64.7327 3.73105 63.0513H3.23105C3.23105 65.0088 4.82348 66.6013 6.78105 66.6013V66.1013Z" fill="#1E2228"/>
</svg>
