<svg width="48" height="48" viewBox="0 0 48 48" fill="none" xmlns="http://www.w3.org/2000/svg">
<circle cx="24" cy="24" r="24" fill="#F22B31"/>
<path fill-rule="evenodd" clip-rule="evenodd" d="M18.5592 16.0188H31.3932C33.9112 16.0188 35.9524 18.06 35.9524 20.578V26.9937C35.9524 29.5117 33.9112 31.5529 31.3932 31.5529H18.5592C16.0412 31.5529 14 29.5117 14 26.9937V20.578C14 18.06 16.0412 16.0188 18.5592 16.0188ZM22.307 26.961L28.3098 24.098C28.4904 24.0119 28.4935 23.7559 28.315 23.6655L22.3121 20.6236C22.1519 20.5423 21.9622 20.6588 21.9622 20.8385V26.7435C21.9622 26.9207 22.147 27.0373 22.307 26.961Z" fill="white"/>
</svg>
